<svg xmlns="http://www.w3.org/2000/svg" viewBox="0 0 1400 900" role="img" aria-labelledby="title desc"><title id="title">桃音ゆめ 表情差分</title><desc id="desc">笑顔、びっくり、歌唱、照れの表情差分を並べた素材。</desc><defs><linearGradient id="bg" x1="0" y1="0" x2="1" y2="1"><stop offset="0" stop-color="#fff8fc"/><stop offset="1" stop-color="#e9fbff"/></linearGradient><linearGradient id="hair" x1="0" y1="0" x2="1" y2="1"><stop offset="0" stop-color="#ffc0df"/><stop offset=".55" stop-color="#ff72b7"/><stop offset="1" stop-color="#a894ff"/></linearGradient><style>.label{font:900 31px 'Yu Gothic','Hiragino Kaku Gothic ProN',Meiryo,sans-serif;fill:#5a3b65}.cap{font:800 23px 'Yu Gothic','Hiragino Kaku Gothic ProN',Meiryo,sans-serif;fill:#806285}</style></defs><rect width="1400" height="900" rx="42" fill="url(#bg)"/><text x="70" y="84" class="label">EXPRESSION SET</text><text x="1040" y="84" class="cap">SNS / サムネ / 告知素材</text><g transform="translate(78 154)"><g><rect width="285" height="600" rx="32" fill="#fff" opacity=".78"/><text x="74" y="548" class="cap">笑顔</text><g transform="translate(42 68)"><path d="M102 0c-78 0-142 64-146 146-4 89 47 141 24 231-10 40-39 72-39 72 70 18 125-5 162-47 37 42 92 65 162 47 0 0-29-32-39-72-23-90 28-142 24-231C244 64 180 0 102 0z" fill="url(#hair)"/><ellipse cx="102" cy="170" rx="87" ry="96" fill="#ffe0ed"/><path d="M31 150c38-16 62-42 77-80 24 42 63 66 111 82-14-62-54-100-116-100-58 0-95 38-72 98z" fill="url(#hair)"/><path d="M58 176q18-25 40 0M121 176q18-25 40 0" stroke="#372840" stroke-width="10" stroke-linecap="round" fill="none"/><path d="M72 225c36 34 76 34 112 0" stroke="#a33e72" stroke-width="11" stroke-linecap="round" fill="none"/></g></g><g transform="translate(320)"><rect width="285" height="600" rx="32" fill="#fff" opacity=".78"/><text x="70" y="548" class="cap">びっくり</text><g transform="translate(42 68)"><path d="M102 0c-78 0-142 64-146 146-4 89 47 141 24 231-10 40-39 72-39 72 70 18 125-5 162-47 37 42 92 65 162 47 0 0-29-32-39-72-23-90 28-142 24-231C244 64 180 0 102 0z" fill="url(#hair)"/><ellipse cx="102" cy="170" rx="87" ry="96" fill="#ffe0ed"/><path d="M31 150c38-16 62-42 77-80 24 42 63 66 111 82-14-62-54-100-116-100-58 0-95 38-72 98z" fill="url(#hair)"/><circle cx="72" cy="178" r="17" fill="#372840"/><circle cx="139" cy="178" r="17" fill="#372840"/><ellipse cx="106" cy="228" rx="18" ry="23" fill="#a33e72"/></g></g><g transform="translate(640)"><rect width="285" height="600" rx="32" fill="#fff" opacity=".78"/><text x="82" y="548" class="cap">歌唱</text><g transform="translate(42 68)"><path d="M102 0c-78 0-142 64-146 146-4 89 47 141 24 231-10 40-39 72-39 72 70 18 125-5 162-47 37 42 92 65 162 47 0 0-29-32-39-72-23-90 28-142 24-231C244 64 180 0 102 0z" fill="url(#hair)"/><ellipse cx="102" cy="170" rx="87" ry="96" fill="#ffe0ed"/><path d="M31 150c38-16 62-42 77-80 24 42 63 66 111 82-14-62-54-100-116-100-58 0-95 38-72 98z" fill="url(#hair)"/><path d="M57 170q20-19 42 0M122 170q20-19 42 0" stroke="#372840" stroke-width="10" stroke-linecap="round" fill="none"/><path d="M82 224c18 25 38 25 56 0" stroke="#a33e72" stroke-width="20" stroke-linecap="round" fill="none"/><path d="M181 119l38-23v87" stroke="#ff7fbc" stroke-width="12" stroke-linecap="round" fill="none"/></g></g><g transform="translate(960)"><rect width="285" height="600" rx="32" fill="#fff" opacity=".78"/><text x="88" y="548" class="cap">照れ</text><g transform="translate(42 68)"><path d="M102 0c-78 0-142 64-146 146-4 89 47 141 24 231-10 40-39 72-39 72 70 18 125-5 162-47 37 42 92 65 162 47 0 0-29-32-39-72-23-90 28-142 24-231C244 64 180 0 102 0z" fill="url(#hair)"/><ellipse cx="102" cy="170" rx="87" ry="96" fill="#ffe0ed"/><path d="M31 150c38-16 62-42 77-80 24 42 63 66 111 82-14-62-54-100-116-100-58 0-95 38-72 98z" fill="url(#hair)"/><circle cx="72" cy="178" r="14" fill="#372840"/><circle cx="139" cy="178" r="14" fill="#372840"/><path d="M86 226c26 17 54 17 80 0" stroke="#a33e72" stroke-width="9" stroke-linecap="round" fill="none"/><path d="M31 214h55M141 214h55" stroke="#ff8fbd" stroke-width="12" stroke-linecap="round" opacity=".65"/></g></g></g></svg>
