<svg xmlns="http://www.w3.org/2000/svg" viewBox="0 0 1200 900" role="img" aria-labelledby="title desc"><title id="title">桃音ゆめ 配信告知ビジュアル</title><desc id="desc">ライブ待機カードとして使う配信告知ビジュアル。</desc><defs><linearGradient id="bg" x1="0" y1="0" x2="1" y2="1"><stop offset="0" stop-color="#fff8fc"/><stop offset=".48" stop-color="#ffe1f2"/><stop offset="1" stop-color="#ddfbff"/></linearGradient><linearGradient id="hair" x1="0" y1="0" x2="1" y2="1"><stop offset="0" stop-color="#ffc4e0"/><stop offset=".58" stop-color="#ff72b7"/><stop offset="1" stop-color="#a894ff"/></linearGradient><style>.big{font:900 62px 'Yu Gothic','Hiragino Kaku Gothic ProN',Meiryo,sans-serif;fill:#4b3155}.small{font:800 28px 'Yu Gothic','Hiragino Kaku Gothic ProN',Meiryo,sans-serif;fill:#735279}</style></defs><rect width="1200" height="900" rx="42" fill="url(#bg)"/><rect x="70" y="70" width="1060" height="760" rx="42" fill="#fff" opacity=".68"/><path d="M124 678c196-76 352-51 532 70 122 82 260 80 424-6" fill="none" stroke="#fff" stroke-width="44" stroke-linecap="round"/><g transform="translate(735 142)"><path d="M154 0c-93 2-164 77-170 178-5 87 44 139 24 224-9 35-38 64-38 64 83 18 143-7 184-51 40 44 101 69 184 50 0 0-30-29-39-64-19-84 31-137 25-224C318 77 247-2 154 0z" fill="url(#hair)"/><ellipse cx="154" cy="190" rx="97" ry="108" fill="#ffe0ed"/><path d="M68 174c43-18 73-48 92-92 28 47 75 75 135 95-16-73-68-118-139-117-68 1-109 45-88 114z" fill="url(#hair)"/><circle cx="116" cy="200" r="17" fill="#372840"/><circle cx="195" cy="200" r="17" fill="#372840"/><path d="M127 260c35 27 69 27 104 0" stroke="#a33e72" stroke-width="10" stroke-linecap="round" fill="none"/><path d="M83 366c25-53 49-79 71-79s46 26 71 79l42 128H41l42-128z" fill="#fff"/><path d="M105 372l49 46 49-46" stroke="#ff7fbc" stroke-width="18" stroke-linecap="round" stroke-linejoin="round" fill="none"/></g><g transform="translate(116 142)"><rect width="520" height="86" rx="43" fill="#ff7fbc"/><text x="42" y="56" class="small" fill="#fff">ON AIR SOON</text><text x="0" y="190" class="big">今日 21:00</text><text x="0" y="270" class="big" fill="#ff62aa">まったり雑談</text><text x="4" y="340" class="small">初見さん歓迎 / アーカイブあり</text><g transform="translate(0 442)"><rect width="220" height="76" rx="38" fill="#66dec9"/><rect x="244" width="240" height="76" rx="38" fill="#ffe47a"/><text x="40" y="50" class="small" fill="#fff">YouTube</text><text x="292" y="50" class="small" fill="#5a3b65">#ゆめ配信</text></g></g></svg>
