<svg xmlns="http://www.w3.org/2000/svg" viewBox="0 0 1400 900" role="img" aria-labelledby="title desc"><title id="title">桃音ゆめ 三面図と衣装詳細</title><desc id="desc">フロント、サイド、バックの三面図と衣装メモをまとめた素材。</desc><defs><linearGradient id="paper" x1="0" y1="0" x2="1" y2="1"><stop offset="0" stop-color="#fff8fc"/><stop offset="1" stop-color="#eefcff"/></linearGradient><linearGradient id="hair" x1="0" y1="0" x2="1" y2="1"><stop offset="0" stop-color="#ffb6dc"/><stop offset=".55" stop-color="#ff72b7"/><stop offset="1" stop-color="#a894ff"/></linearGradient><linearGradient id="dress" x1="0" y1="0" x2="1" y2="1"><stop offset="0" stop-color="#fff"/><stop offset=".52" stop-color="#ffd7ea"/><stop offset="1" stop-color="#8debdc"/></linearGradient><style>.label{font:900 26px 'Yu Gothic','Hiragino Kaku Gothic ProN',Meiryo,sans-serif;fill:#5b4264}.note{font:700 19px 'Yu Gothic','Hiragino Kaku Gothic ProN',Meiryo,sans-serif;fill:#7a667f}</style></defs><rect width="1400" height="900" rx="38" fill="url(#paper)"/><path d="M62 98h1276M62 802h1276" stroke="#fff" stroke-width="20" stroke-linecap="round" opacity=".8"/><text x="66" y="70" class="label">MODEL SHEET / 桃音ゆめ</text><text x="1000" y="70" class="note">front / side / back / outfit memo</text><g transform="translate(92 126)"><rect width="330" height="640" rx="32" fill="#fff" opacity=".76"/><text x="36" y="50" class="label">FRONT</text><g transform="translate(66 86)"><path d="M100 0c-76 4-135 68-139 151-4 88 45 138 24 222-11 44-44 78-44 78 73 18 127-4 160-43 34 37 88 58 157 36 0 0-32-33-42-77-17-76 20-142 0-218C197 63 163-3 100 0z" fill="url(#hair)"/><ellipse cx="100" cy="159" rx="78" ry="90" fill="#ffe0ed"/><path d="M27 146c37-15 61-39 78-78 22 41 58 67 93 79-7-59-43-97-95-97-51 0-84 39-76 96z" fill="url(#hair)"/><circle cx="69" cy="166" r="12" fill="#372840"/><circle cx="130" cy="166" r="12" fill="#372840"/><path d="M82 210c20 15 42 15 62 0" stroke="#a33e72" stroke-width="7" stroke-linecap="round" fill="none"/><path d="M34 292c22-40 44-60 66-60s44 20 66 60l36 142H-2l36-142z" fill="url(#dress)"/><path d="M51 293l49 47 49-47M32 380h136" stroke="#fff" stroke-width="13" stroke-linecap="round"/><circle cx="100" cy="358" r="15" fill="#ffe47a"/><path d="M70 432l-8 86M130 432l8 86" stroke="#ffd1e6" stroke-width="22" stroke-linecap="round"/></g></g><g transform="translate(534 126)"><rect width="330" height="640" rx="32" fill="#fff" opacity=".76"/><text x="36" y="50" class="label">SIDE</text><g transform="translate(74 88)"><path d="M109 8c-75 7-127 73-122 155 5 80 49 135 18 236-10 35-30 58-30 58 71 10 129-18 160-68 42 41 91 58 152 43-68-48-80-99-69-168 15-93-15-189-109-256z" fill="url(#hair)"/><ellipse cx="94" cy="166" rx="72" ry="88" fill="#ffe0ed"/><path d="M30 147c35-18 62-48 82-91 31 58 74 84 107 97-23-81-66-115-111-112-44 2-74 38-78 106z" fill="url(#hair)"/><circle cx="117" cy="170" r="12" fill="#372840"/><path d="M116 211c18 13 35 13 52 0" stroke="#a33e72" stroke-width="7" stroke-linecap="round" fill="none"/><path d="M46 300c37-41 78-63 123-66 31 45 49 112 61 199H28c0-56 6-100 18-133z" fill="url(#dress)"/><path d="M77 323h112M82 380h124" stroke="#fff" stroke-width="13" stroke-linecap="round"/><path d="M98 432l-12 86M165 432l18 86" stroke="#ffd1e6" stroke-width="22" stroke-linecap="round"/></g></g><g transform="translate(976 126)"><rect width="330" height="640" rx="32" fill="#fff" opacity=".76"/><text x="36" y="50" class="label">BACK</text><g transform="translate(66 88)"><path d="M102 0c-86 2-148 72-153 168-5 92 46 147 20 246-12 45-48 82-48 82 86 24 146-6 181-50 38 43 97 69 181 48 0 0-36-37-48-82-26-97 25-151 20-244C250 73 188-2 102 0z" fill="url(#hair)"/><path d="M24 260c28-28 54-43 78-43 25 0 51 15 79 43l37 171H-13l37-171z" fill="url(#dress)"/><path d="M24 316h157M42 372h121" stroke="#fff" stroke-width="13" stroke-linecap="round"/><path d="M72 431l-12 88M135 431l12 88" stroke="#ffd1e6" stroke-width="22" stroke-linecap="round"/><path d="M69 86c18 53 46 90 86 112" stroke="#ffc2df" stroke-width="18" stroke-linecap="round" fill="none"/></g></g><text class="note" x="90" y="810">衣装メモ: ピンク髪 / 白とミントのワンピース / 星のアクセント / 配信画面とグッズ展開に使いやすい色設計</text></svg>
