<svg xmlns="http://www.w3.org/2000/svg" viewBox="0 0 900 1200" role="img" aria-labelledby="title desc"><title id="title">桃音ゆめ 立ち絵ビジュアル</title><desc id="desc">活動中VTuber向け公式サイト用の立ち絵風ビジュアル。</desc><defs><linearGradient id="bg" x1="0" y1="0" x2="1" y2="1"><stop offset="0" stop-color="#fff7fc"/><stop offset="1" stop-color="#eefcff"/></linearGradient><linearGradient id="hair" x1="0" y1="0" x2="1" y2="1"><stop offset="0" stop-color="#ffc1df"/><stop offset=".52" stop-color="#ff70b5"/><stop offset="1" stop-color="#a894ff"/></linearGradient><linearGradient id="outfit" x1="0" y1="0" x2="1" y2="1"><stop offset="0" stop-color="#fff"/><stop offset=".48" stop-color="#ffd8ee"/><stop offset="1" stop-color="#89ebdc"/></linearGradient></defs><rect width="900" height="1200" rx="46" fill="url(#bg)"/><g opacity=".55"><circle cx="140" cy="160" r="68" fill="#ffe47a"/><circle cx="750" cy="190" r="85" fill="#8bd8ff"/><path d="M92 900c170-76 330-42 478 77 68 55 146 80 238 61" fill="none" stroke="#fff" stroke-width="42" stroke-linecap="round"/></g><g transform="translate(120 80)"><path d="M330 64c-136 0-244 112-252 260-9 156 72 237 39 392-18 86-80 144-80 144 133 22 240-18 294-89 61 72 162 105 294 70 0 0-59-56-76-140-27-138 35-262-1-401C515 171 437 64 330 64z" fill="url(#hair)"/><ellipse cx="330" cy="332" rx="176" ry="198" fill="#ffe0ed"/><path d="M163 308c76-35 125-88 162-165 46 84 122 136 179 163-16-110-82-188-176-188-92 0-153 77-165 190z" fill="url(#hair)"/><circle cx="260" cy="345" r="28" fill="#36263f"/><circle cx="400" cy="345" r="28" fill="#36263f"/><circle cx="270" cy="334" r="9" fill="#fff"/><circle cx="410" cy="334" r="9" fill="#fff"/><path d="M292 441c34 27 72 27 108 0" stroke="#a33e72" stroke-width="13" stroke-linecap="round" fill="none"/><path d="M182 604c38-82 92-122 148-122s110 40 148 122l71 202c24 72 18 152-18 224H129c-36-72-42-152-18-224l71-202z" fill="url(#outfit)"/><path d="M224 589l106 95 106-95M180 787h298" stroke="#fff" stroke-width="24" stroke-linecap="round" stroke-linejoin="round" opacity=".86"/><circle cx="330" cy="723" r="29" fill="#ffe47a"/><path d="M120 620c-68 96-94 186-80 270M540 620c68 96 94 186 80 270" stroke="#ffd1e6" stroke-width="44" stroke-linecap="round" fill="none"/><path d="M260 1028l-18 88M400 1028l18 88" stroke="#ffd1e6" stroke-width="52" stroke-linecap="round"/><path d="M215 1120h110M365 1120h110" stroke="#ff7fbc" stroke-width="34" stroke-linecap="round"/></g><g font-family="'Yu Gothic','Hiragino Kaku Gothic ProN',Meiryo,sans-serif" font-weight="900" fill="#5a3b65"><text x="54" y="91" font-size="36">STANDEE VISUAL</text><text x="54" y="145" font-size="24" fill="#8c7b98">サイト / 待機画面 / 告知に使える立ち絵</text></g></svg>
