<svg xmlns="http://www.w3.org/2000/svg" viewBox="0 0 1400 780" role="img" aria-labelledby="title desc"><title id="title">桃音ゆめ 配信サムネイル用バナー</title><desc id="desc">配信タイトルを載せるためのかわいい告知バナー。</desc><defs><linearGradient id="bg" x1="0" y1="0" x2="1" y2="1"><stop offset="0" stop-color="#fff8fc"/><stop offset=".5" stop-color="#ffd9ee"/><stop offset="1" stop-color="#defbff"/></linearGradient><linearGradient id="hair" x1="0" y1="0" x2="1" y2="1"><stop offset="0" stop-color="#ffc2df"/><stop offset=".55" stop-color="#ff70b5"/><stop offset="1" stop-color="#a894ff"/></linearGradient><style>.big{font:900 82px 'Yu Gothic','Hiragino Kaku Gothic ProN',Meiryo,sans-serif;fill:#4a2d55}.small{font:800 31px 'Yu Gothic','Hiragino Kaku Gothic ProN',Meiryo,sans-serif;fill:#735279}</style></defs><rect width="1400" height="780" rx="40" fill="url(#bg)"/><g opacity=".62"><circle cx="110" cy="105" r="66" fill="#ffe47a"/><circle cx="1240" cy="150" r="110" fill="#8bd8ff"/><circle cx="1260" cy="650" r="150" fill="#a894ff"/><path d="M92 615c210-90 428-62 652 86 156 102 346 88 560-43" fill="none" stroke="#fff" stroke-width="54" stroke-linecap="round"/></g><g transform="translate(802 74)"><path d="M230 0c-138 5-235 119-241 254-5 125 60 203 28 321-12 46-48 83-48 83 121 29 211-1 262-72 54 71 145 101 262 67 0 0-37-36-49-82-30-117 36-196 30-321C469 111 371-5 230 0z" fill="url(#hair)"/><ellipse cx="230" cy="266" rx="149" ry="165" fill="#ffe0ed"/><path d="M89 245c64-25 106-70 137-137 38 70 100 113 187 139-19-106-87-170-184-169-93 1-151 65-140 167z" fill="url(#hair)"/><circle cx="172" cy="280" r="24" fill="#372840"/><circle cx="289" cy="280" r="24" fill="#372840"/><path d="M199 347c45 35 91 35 136 0" stroke="#a33e72" stroke-width="13" stroke-linecap="round" fill="none"/><path d="M112 500c38-73 78-109 118-109s80 36 118 109l54 154H58l54-154z" fill="#fff" opacity=".92"/></g><g transform="translate(76 124)"><rect width="700" height="120" rx="60" fill="#fff" opacity=".9"/><text x="42" y="78" class="small">TODAY 21:00 / #ゆめの放課後</text><text x="0" y="236" class="big">まったり雑談配信</text><text x="4" y="304" class="small">初見さん歓迎・アーカイブあり</text><g transform="translate(0 374)"><rect width="210" height="74" rx="37" fill="#ff7fbc"/><rect x="236" width="250" height="74" rx="37" fill="#66dec9"/><rect x="512" width="170" height="74" rx="37" fill="#ffe47a"/><text x="42" y="49" class="small" fill="#fff">LIVE</text><text x="278" y="49" class="small" fill="#fff">CHAT OK</text><text x="556" y="49" class="small" fill="#5a3b65">GAME</text></g></g></svg>
