<svg xmlns="http://www.w3.org/2000/svg" viewBox="0 0 1200 1500" role="img" aria-labelledby="title desc"><title id="title">桃音ゆめ キャラクタービジュアル</title><desc id="desc">ピンク髪のかわいいVTuberキャラクターのメインビジュアル。</desc><defs><linearGradient id="bg" x1="0" y1="0" x2="1" y2="1"><stop offset="0" stop-color="#fff8fc"/><stop offset=".45" stop-color="#ffe2f1"/><stop offset="1" stop-color="#e9fbff"/></linearGradient><linearGradient id="hair" x1=".18" y1=".05" x2=".9" y2="1"><stop offset="0" stop-color="#ffb7dc"/><stop offset=".48" stop-color="#ff72b7"/><stop offset="1" stop-color="#b79aff"/></linearGradient><linearGradient id="dress" x1="0" y1="0" x2="1" y2="1"><stop offset="0" stop-color="#ffffff"/><stop offset=".5" stop-color="#ffd6ea"/><stop offset="1" stop-color="#9feee0"/></linearGradient><filter id="soft" x="-20%" y="-20%" width="140%" height="140%"><feDropShadow dx="0" dy="30" stdDeviation="34" flood-color="#b566a8" flood-opacity=".24"/></filter></defs><rect width="1200" height="1500" fill="url(#bg)"/><g opacity=".68"><circle cx="210" cy="220" r="92" fill="#ffe47a"/><circle cx="980" cy="250" r="118" fill="#8bd8ff"/><circle cx="1020" cy="1110" r="150" fill="#a894ff"/><path d="M115 930c170-56 292-30 402 76 128 124 312 134 502 28" fill="none" stroke="#fff" stroke-width="54" stroke-linecap="round" opacity=".72"/></g><g filter="url(#soft)" transform="translate(105 58)"><path d="M510 136c-176 4-314 143-327 327-12 168 45 275 7 416-33 122-152 184-152 184 211 54 336-5 412-104 70 79 186 127 342 111 128-13 223-73 223-73-117-65-153-164-138-297 18-160 19-330-83-443C728 185 633 133 510 136z" fill="url(#hair)"/><path d="M238 548c-96 12-151 97-132 182 17 74 88 126 167 113l4-1M778 548c96 12 151 97 132 182-17 74-88 126-167 113l-4-1" fill="#ffd8e9"/><ellipse cx="509" cy="556" rx="260" ry="286" fill="#ffe0ed"/><path d="M268 515c85-26 155-85 208-174 58 104 178 168 288 184-15-172-115-288-253-288-139 0-236 108-243 278z" fill="url(#hair)"/><circle cx="410" cy="580" r="42" fill="#3a2848"/><circle cx="606" cy="580" r="42" fill="#3a2848"/><circle cx="426" cy="564" r="13" fill="#fff"/><circle cx="622" cy="564" r="13" fill="#fff"/><path d="M490 620c-8 25-17 48-28 69 36 25 74 24 108-2" fill="none" stroke="#d978a8" stroke-width="15" stroke-linecap="round"/><path d="M403 723c73 50 146 50 218 0" fill="none" stroke="#a33e72" stroke-width="18" stroke-linecap="round"/><path d="M274 934c28-130 115-201 238-201 124 0 210 71 238 201l63 304H211l63-304z" fill="url(#dress)"/><path d="M331 918h356M392 1042h234" stroke="#fff" stroke-width="30" stroke-linecap="round" opacity=".82"/><path d="M405 810l104 98 104-98" fill="none" stroke="#ff7fbc" stroke-width="32" stroke-linecap="round" stroke-linejoin="round"/><circle cx="509" cy="944" r="39" fill="#ffe47a"/><path d="M288 1160c78 48 160 72 245 72 85 0 164-24 237-72" fill="none" stroke="#8bd8ff" stroke-width="26" stroke-linecap="round"/></g><g font-family="'Yu Gothic','Hiragino Kaku Gothic ProN',Meiryo,sans-serif" fill="#ffffff" font-weight="900"><text x="72" y="1326" font-size="76">Momone Yume</text><text x="76" y="1400" font-size="34" opacity=".84">Official VTuber Site Demo</text></g></svg>
