<svg xmlns="http://www.w3.org/2000/svg" viewBox="0 0 1400 900" role="img" aria-labelledby="title desc"><title id="title">桃音ゆめ グッズモックアップ</title><desc id="desc">アクスタ、缶バッジ、カード、ボイス販売を想定したグッズ展開イメージ。</desc><defs><linearGradient id="bg" x1="0" y1="0" x2="1" y2="1"><stop offset="0" stop-color="#fff8fc"/><stop offset="1" stop-color="#e8fbff"/></linearGradient><linearGradient id="hair" x1="0" y1="0" x2="1" y2="1"><stop offset="0" stop-color="#ffc2df"/><stop offset=".56" stop-color="#ff72b7"/><stop offset="1" stop-color="#a894ff"/></linearGradient><style>.label{font:900 34px 'Yu Gothic','Hiragino Kaku Gothic ProN',Meiryo,sans-serif;fill:#5a3b65}.cap{font:800 22px 'Yu Gothic','Hiragino Kaku Gothic ProN',Meiryo,sans-serif;fill:#806285}</style></defs><rect width="1400" height="900" rx="44" fill="url(#bg)"/><circle cx="180" cy="170" r="90" fill="#ffe47a" opacity=".6"/><circle cx="1220" cy="180" r="130" fill="#8bd8ff" opacity=".5"/><text x="72" y="82" class="label">GOODS MOCKUP</text><g transform="translate(126 166)"><rect x="0" y="88" width="320" height="470" rx="34" fill="#fff" opacity=".9"/><text x="68" y="604" class="cap">アクリルスタンド</text><g transform="translate(64 0) scale(.72)"><path d="M144 0c-100 2-179 84-184 191-4 95 50 157 28 246-10 39-42 69-42 69 91 20 157-7 198-56 44 49 110 76 198 54 0 0-32-31-42-70-22-88 32-150 28-246C323 82 244-2 144 0z" fill="url(#hair)"/><ellipse cx="144" cy="202" rx="100" ry="112" fill="#ffe0ed"/><path d="M60 188c43-19 73-50 88-93 28 46 76 76 137 94-14-73-66-117-138-117-68 0-108 44-87 116z" fill="url(#hair)"/><circle cx="104" cy="212" r="16" fill="#372840"/><circle cx="179" cy="212" r="16" fill="#372840"/><path d="M116 270c33 26 65 26 98 0" stroke="#a33e72" stroke-width="9" stroke-linecap="round" fill="none"/><path d="M67 365c28-57 54-85 77-85s49 28 77 85l40 120H27l40-120z" fill="#fff"/></g><ellipse cx="160" cy="545" rx="110" ry="26" fill="#ff7fbc" opacity=".34"/></g><g transform="translate(528 216)"><circle cx="140" cy="140" r="132" fill="#fff" opacity=".93"/><circle cx="140" cy="140" r="100" fill="#ffd8ea"/><text x="56" y="338" class="cap">缶バッジ</text><text x="90" y="154" class="label" fill="#ff7fbc">ゆめ</text></g><g transform="translate(846 184)"><rect width="300" height="440" rx="32" fill="#fff" opacity=".93"/><rect x="36" y="42" width="228" height="210" rx="26" fill="#ffe3f2"/><text x="62" y="142" class="label" fill="#ff7fbc">VOICE</text><path d="M84 300h132M84 346h176" stroke="#8bd8ff" stroke-width="18" stroke-linecap="round"/><text x="70" y="506" class="cap">ボイスカード</text></g><g transform="translate(1116 270) rotate(8)"><rect width="184" height="250" rx="24" fill="#fff" opacity=".94"/><circle cx="92" cy="95" r="48" fill="#ffb4d4"/><path d="M50 175h84M50 207h102" stroke="#66dec9" stroke-width="12" stroke-linecap="round"/></g><path d="M92 765c230-64 398-36 582 69 160 91 342 84 634-45" fill="none" stroke="#fff" stroke-width="46" stroke-linecap="round" opacity=".8"/></svg>
