<svg xmlns="http://www.w3.org/2000/svg" viewBox="0 0 820 270" role="img" aria-label="白狼このは">
  <defs>
    <linearGradient id="mintText" x1="0" x2="1" y1="0" y2="1">
      <stop offset="0" stop-color="#f9ffff"/>
      <stop offset="0.45" stop-color="#d8e2e8"/>
      <stop offset="1" stop-color="#91cfc0"/>
    </linearGradient>
    <filter id="shadow" x="-20%" y="-20%" width="140%" height="160%">
      <feDropShadow dx="0" dy="12" stdDeviation="7" flood-color="#31423d" flood-opacity="0.23"/>
      <feDropShadow dx="0" dy="0" stdDeviation="4" flood-color="#ffffff" flood-opacity="0.9"/>
    </filter>
  </defs>
  <path d="M64 154c81-72 177-97 287-74 104 22 210 10 313-42" fill="none" stroke="#8ed3c2" stroke-width="13" stroke-linecap="round" opacity=".88"/>
  <path d="M95 177c119-57 248-63 387-18 79 26 157 21 235-15" fill="none" stroke="#e6ecef" stroke-width="18" stroke-linecap="round"/>
  <path d="M76 61 51 99l44 4-22 40 58-40-31-42Z" fill="#ffffff" stroke="#79b7a8" stroke-width="5" stroke-linejoin="round" opacity=".95"/>
  <text x="126" y="144" font-family="'Yu Mincho','Hiragino Mincho ProN','Yu Gothic',serif" font-size="82" font-weight="900" fill="#ffffff" stroke="#4d6962" stroke-width="14" paint-order="stroke" filter="url(#shadow)">白狼このは</text>
  <text x="126" y="144" font-family="'Yu Mincho','Hiragino Mincho ProN','Yu Gothic',serif" font-size="82" font-weight="900" fill="url(#mintText)" stroke="#ffffff" stroke-width="4" paint-order="stroke">白狼このは</text>
  <text x="218" y="197" font-family="Verdana,Arial,sans-serif" font-size="25" font-weight="900" letter-spacing="8" fill="#4f6761">SHIROKAMI KONOHA</text>
  <path d="M700 81c22 5 41 21 50 41-23-12-46-9-67 8 2-20 7-36 17-49Z" fill="#f8ffff" stroke="#8dc8b9" stroke-width="5" stroke-linejoin="round"/>
  <path d="M681 191c22-7 42-21 57-42" fill="none" stroke="#7ab9aa" stroke-width="8" stroke-linecap="round"/>
</svg>
